<?xml version="1.0" standalone="no"?>
<!DOCTYPE svg PUBLIC "-//W3C//DTD SVG 20010904//EN"
 "http://www.w3.org/TR/2001/REC-SVG-20010904/DTD/svg10.dtd">
<svg version="1.0" xmlns="http://www.w3.org/2000/svg"
 width="1191.000000pt" height="295.000000pt" viewBox="0 0 1191.000000 295.000000"
 preserveAspectRatio="xMidYMid meet">
<metadata>
Created by potrace 1.16, written by Peter Selinger 2001-2019
</metadata>
<g transform="translate(0.000000,295.000000) scale(0.100000,-0.100000)"
fill="#1b4332" stroke="none">
<path d="M898 2713 c-27 -2 -48 -8 -48 -14 0 -5 -16 -9 -35 -9 -19 0 -35 -4
-35 -10 0 -5 -13 -10 -30 -10 -16 0 -30 -4 -30 -10 0 -5 -11 -10 -25 -10 -14
0 -25 -4 -25 -10 0 -5 -9 -10 -19 -10 -10 0 -21 -7 -25 -15 -3 -8 -12 -12 -21
-9 -8 3 -15 1 -15 -4 0 -6 -16 -19 -35 -28 -19 -9 -35 -20 -35 -25 0 -5 -6 -9
-12 -9 -7 0 -29 -14 -48 -30 -19 -16 -38 -30 -42 -30 -13 0 -188 -182 -188
-195 0 -3 -9 -15 -20 -27 -11 -12 -20 -28 -20 -35 0 -7 -4 -13 -9 -13 -5 0
-16 -16 -25 -35 -9 -19 -21 -35 -26 -35 -6 0 -10 -9 -10 -20 0 -11 -4 -20 -10
-20 -5 0 -10 -9 -10 -20 0 -11 -4 -20 -10 -20 -5 0 -10 -11 -10 -25 0 -14 -4
-25 -10 -25 -5 0 -10 -13 -10 -30 0 -16 -4 -30 -10 -30 -5 0 -10 -15 -10 -34
0 -19 -6 -36 -12 -38 -10 -4 -13 -71 -13 -293 0 -222 3 -289 13 -292 6 -3 12
-20 12 -39 0 -19 5 -34 10 -34 6 0 10 -11 10 -25 0 -14 5 -25 10 -25 6 0 10
-11 10 -25 0 -14 5 -25 10 -25 6 0 10 -11 10 -25 0 -14 5 -25 10 -25 6 0 10
-7 10 -15 0 -7 6 -18 13 -22 6 -4 18 -18 25 -30 30 -55 38 -68 47 -79 34 -40
45 -55 45 -62 0 -13 165 -172 178 -172 7 0 10 -5 7 -10 -3 -6 0 -10 8 -10 7 0
23 -9 35 -20 12 -11 26 -20 32 -20 5 0 10 -4 10 -10 0 -5 7 -10 15 -10 8 0 15
-4 15 -10 0 -5 9 -10 20 -10 11 0 20 -4 20 -10 0 -5 9 -10 20 -10 11 0 20 -4
20 -10 0 -5 9 -10 20 -10 11 0 20 -4 20 -10 0 -5 9 -10 19 -10 11 0 23 -4 26
-10 3 -5 17 -10 30 -10 13 0 27 -4 30 -10 3 -5 19 -10 35 -10 16 0 31 -4 34
-9 3 -4 27 -11 53 -14 26 -3 49 -10 51 -16 5 -15 389 -15 394 0 2 6 25 13 51
16 26 3 50 10 53 14 3 5 18 9 35 9 16 0 29 5 29 10 0 6 9 10 20 10 11 0 29 5
40 10 11 6 29 15 40 20 11 5 27 10 35 10 8 0 15 5 15 10 0 6 9 10 20 10 11 0
20 4 20 9 0 5 8 11 18 14 26 8 75 40 93 60 9 9 21 17 27 17 5 0 13 7 16 16 4
11 96 -75 331 -310 l325 -326 65 0 c48 0 64 3 59 12 -5 7 -1 9 13 6 16 -4 19
-2 16 13 -3 11 0 19 6 19 7 0 11 22 11 60 l0 60 -325 325 c-231 231 -321 327
-310 331 8 4 15 11 15 18 0 6 9 18 20 26 11 8 20 20 20 28 0 7 9 22 20 34 11
12 20 28 20 35 0 7 5 13 10 13 6 0 10 9 10 20 0 11 5 20 10 20 6 0 10 7 10 15
0 15 4 25 28 72 7 13 12 32 12 43 0 11 5 20 10 20 6 0 10 13 10 29 0 17 4 32
9 35 4 3 11 27 14 53 3 26 10 49 16 51 15 5 15 389 0 394 -6 2 -13 25 -16 51
-3 26 -10 50 -14 53 -5 3 -9 18 -9 34 0 16 -4 32 -10 35 -5 3 -10 17 -10 30 0
13 -4 27 -10 30 -5 3 -10 15 -10 26 0 10 -4 19 -10 19 -5 0 -10 9 -10 20 0 11
-4 20 -10 20 -5 0 -10 9 -10 20 0 11 -4 20 -10 20 -5 0 -10 9 -10 20 0 11 -4
20 -10 20 -5 0 -10 7 -10 15 0 8 -4 15 -10 15 -5 0 -10 6 -10 13 0 8 -9 22
-20 32 -11 10 -20 22 -20 28 0 15 -160 176 -210 210 -25 17 -47 33 -50 36 -3
3 -15 12 -27 19 -13 6 -33 18 -45 25 -13 6 -27 18 -31 25 -4 6 -15 12 -22 12
-8 0 -15 5 -15 10 0 6 -11 10 -25 10 -14 0 -25 5 -25 10 0 6 -9 10 -20 10 -11
0 -20 5 -20 10 0 6 -13 10 -30 10 -16 0 -30 5 -30 10 0 6 -15 10 -34 10 -19 0
-36 5 -38 12 -3 9 -69 13 -249 14 -134 1 -265 0 -291 -3z m292 -223 c0 -6 33
-10 80 -10 47 0 80 -4 80 -10 0 -5 16 -10 35 -10 19 0 35 -4 35 -10 0 -5 14
-10 30 -10 17 0 30 -4 30 -10 0 -5 6 -10 14 -10 30 0 194 -98 204 -122 2 -4 9
-8 16 -8 15 0 136 -125 136 -140 0 -5 5 -10 10 -10 6 0 10 -5 10 -10 0 -6 9
-20 20 -32 11 -12 20 -28 20 -35 0 -7 5 -13 10 -13 6 0 10 -9 10 -20 0 -11 5
-20 10 -20 6 0 10 -9 10 -20 0 -11 5 -20 10 -20 6 0 10 -11 10 -25 0 -14 5
-25 10 -25 6 0 10 -11 10 -24 0 -13 7 -26 15 -30 9 -3 15 -18 15 -39 0 -18 4
-37 9 -43 8 -8 21 -133 21 -199 0 -60 -13 -181 -21 -190 -5 -5 -9 -23 -9 -40
0 -17 -5 -36 -12 -43 -6 -6 -13 -22 -15 -34 -2 -12 -8 -25 -15 -29 -6 -4 -7
-12 -4 -18 4 -6 0 -14 -8 -17 -9 -3 -16 -17 -16 -30 0 -13 -4 -24 -8 -24 -5 0
-14 -16 -22 -35 -8 -19 -17 -35 -22 -35 -4 0 -8 -7 -8 -15 0 -8 -4 -15 -8 -15
-4 0 -16 -14 -26 -31 -23 -40 -115 -132 -155 -155 -17 -10 -31 -22 -31 -26 0
-4 -7 -8 -15 -8 -8 0 -15 -4 -15 -8 0 -5 -16 -14 -35 -22 -19 -8 -35 -17 -35
-22 0 -4 -12 -8 -26 -8 -14 0 -23 -4 -19 -10 3 -6 -5 -10 -19 -10 -13 0 -26
-4 -28 -10 -1 -5 -13 -11 -26 -13 -12 -2 -28 -9 -34 -15 -7 -7 -24 -12 -38
-12 -14 0 -30 -4 -35 -9 -8 -8 -127 -20 -200 -22 -57 0 -196 15 -201 22 -3 5
-21 9 -40 9 -22 0 -37 6 -40 15 -4 8 -17 15 -30 15 -13 0 -24 5 -24 10 0 6
-11 10 -25 10 -14 0 -25 5 -25 10 0 6 -9 10 -20 10 -11 0 -20 5 -20 10 0 6 -9
10 -20 10 -11 0 -20 5 -20 10 0 6 -7 10 -15 10 -8 0 -15 5 -15 10 0 6 -7 10
-15 10 -8 0 -15 5 -15 10 0 6 -7 10 -15 10 -8 0 -15 5 -15 10 0 6 -5 10 -10
10 -15 0 -140 121 -140 136 0 7 -4 14 -8 16 -24 10 -122 174 -122 204 0 8 -4
14 -10 14 -5 0 -10 14 -10 30 0 17 -4 30 -10 30 -5 0 -10 18 -10 40 0 22 -4
40 -10 40 -6 0 -10 32 -10 75 0 43 -4 75 -10 75 -5 0 -10 20 -10 45 0 25 5 45
10 45 6 0 10 33 10 80 0 47 4 80 10 80 6 0 10 15 10 34 0 19 5 38 10 41 6 3
10 17 10 30 0 13 4 27 10 30 5 3 10 15 10 26 0 10 5 19 10 19 6 0 10 9 10 20
0 11 5 20 10 20 6 0 10 9 10 20 0 11 4 20 8 20 5 0 14 11 20 24 29 64 253 286
290 286 6 0 12 5 12 10 0 6 9 10 20 10 11 0 20 5 20 10 0 6 9 10 20 10 11 0
20 5 20 10 0 6 9 10 19 10 11 0 23 5 26 10 3 6 17 10 30 10 13 0 27 5 30 10 3
6 22 10 41 10 19 0 34 5 34 10 0 6 33 10 80 10 47 0 80 4 80 10 0 6 20 10 45
10 25 0 45 -4 45 -10z"/>
<path d="M620 2182 c0 -4 -10 -12 -22 -17 -13 -6 -27 -20 -33 -32 -5 -13 -13
-23 -17 -23 -14 0 -10 -1023 4 -1051 7 -14 28 -37 48 -50 l35 -24 482 -3 c512
-3 543 -1 588 43 44 45 46 76 43 588 l-3 482 -24 35 c-13 20 -36 41 -50 48
-28 14 -1051 18 -1051 4z m250 -252 c0 -5 -4 -10 -10 -10 -6 0 -10 -35 -10
-85 0 -50 4 -85 10 -85 6 0 10 -13 10 -30 0 -30 18 -54 58 -77 27 -16 422 -19
422 -3 0 6 9 10 20 10 11 0 20 6 20 14 0 8 5 16 11 18 8 3 14 48 17 131 l5
127 38 0 39 0 0 -355 0 -355 -355 0 -355 0 0 355 0 355 40 0 c22 0 40 -4 40
-10z"/>
<path d="M7927 2493 c-4 -3 -7 -406 -7 -895 l0 -888 120 0 120 0 0 213 0 213
54 53 54 53 188 -266 189 -266 139 0 c117 0 137 2 133 15 -4 8 -113 159 -244
335 -131 176 -238 325 -238 330 0 5 105 117 233 249 127 132 232 244 232 250
0 7 -47 11 -142 10 l-143 0 -227 -245 -228 -244 0 545 0 545 -113 0 c-63 0
-117 -3 -120 -7z"/>
<path d="M11020 1605 l0 -895 115 0 115 0 0 895 0 895 -115 0 -115 0 0 -895z"/>
<path d="M11600 1605 l0 -895 115 0 115 0 0 895 0 895 -115 0 -115 0 0 -895z"/>
<path d="M3270 2195 l0 -105 240 0 240 0 0 -690 0 -690 125 0 125 0 0 690 0
690 245 0 245 0 0 105 0 105 -610 0 -610 0 0 -105z"/>
<path d="M5124 1901 c-85 -21 -195 -106 -235 -182 l-17 -33 -5 30 c-4 16 -11
64 -18 107 l-12 77 -88 0 -89 0 0 -595 0 -595 115 0 115 0 0 323 c0 191 4 348
11 382 21 114 85 207 173 252 67 34 182 43 252 19 26 -9 51 -13 54 -9 4 5 15
46 25 93 10 47 19 90 22 96 2 5 -21 18 -50 27 -56 18 -194 22 -253 8z"/>
<path d="M5875 1895 c-74 -17 -121 -34 -207 -75 l-67 -31 42 -85 c23 -46 46
-84 51 -84 6 0 48 16 94 36 112 48 239 70 315 54 117 -24 159 -78 165 -211 l4
-87 -198 -4 c-172 -4 -209 -8 -269 -28 -177 -57 -260 -139 -286 -281 -22 -120
17 -248 96 -316 154 -132 449 -133 615 -2 27 21 51 39 54 39 2 0 7 -17 10 -37
14 -77 7 -73 117 -73 l100 0 -3 448 c-4 493 -5 499 -70 597 -38 57 -99 103
-171 129 -69 25 -305 32 -392 11z m395 -764 l0 -118 -44 -41 c-113 -104 -275
-138 -386 -82 -49 25 -70 60 -77 125 -5 46 -2 60 21 99 57 97 142 122 449 135
l37 1 0 -119z"/>
<path d="M7173 1891 c-115 -31 -181 -69 -259 -146 -75 -74 -119 -146 -150
-251 -14 -45 -19 -92 -19 -199 0 -154 12 -210 67 -319 42 -83 145 -184 228
-224 127 -60 268 -81 419 -63 88 11 206 43 224 61 9 8 -29 158 -43 174 -4 4
-39 -5 -77 -20 -61 -26 -80 -28 -178 -28 -133 0 -198 21 -274 90 -128 115
-168 364 -88 545 82 186 320 268 532 184 34 -14 66 -25 71 -25 10 0 66 171 59
178 -1 2 -36 15 -76 29 -64 23 -94 27 -219 30 -120 3 -157 0 -217 -16z"/>
<path d="M10075 1895 c-74 -17 -121 -34 -207 -75 l-67 -31 42 -85 c23 -46 46
-84 51 -84 6 0 48 16 94 36 112 48 239 70 315 54 117 -24 159 -78 165 -211 l4
-87 -198 -4 c-172 -4 -209 -8 -269 -28 -177 -57 -260 -139 -286 -281 -22 -120
17 -248 96 -316 154 -132 449 -133 615 -2 27 21 51 39 54 39 2 0 7 -17 10 -37
14 -77 7 -73 117 -73 l100 0 -3 448 c-4 493 -5 499 -70 597 -38 57 -99 103
-171 129 -69 25 -305 32 -392 11z m395 -764 l0 -118 -44 -41 c-113 -104 -275
-138 -386 -82 -49 25 -70 60 -77 125 -5 46 -2 60 21 99 57 97 142 122 449 135
l37 1 0 -119z"/>
<path d="M9000 1445 l0 -105 280 0 280 0 0 105 0 105 -280 0 -280 0 0 -105z"/>
</g>
</svg>
