<svg id="color" enable-background="new 0 0 24 24" height="512" viewBox="0 0 24 24" width="512" xmlns="http://www.w3.org/2000/svg"><path d="m23.25 22h-7c-.414 0-.75-.336-.75-.75v-6.95c0-.414.336-.75.75-.75h3c2.619 0 4.75 2.131 4.75 4.75v2.95c0 .414-.336.75-.75.75z" fill="#90a4ae"/><path d="m19.25 13.55h-3c-.414 0-.75.336-.75.75v6.95c0 .414.336.75.75.75h3.25v-8.444c-.083-.004-.166-.006-.25-.006z" fill="#7d8f97"/><path d="m16.25 10.75v11.25h-14c-.41 0-.75-.34-.75-.75v-9.04l4.08 1.79h.84l2.33-1.02 5.25-2.31v-.67h1.5c.41 0 .75.34.75.75z" fill="#eceff1"/><path d="m8.75 12.98v9.02h-6.5c-.41 0-.75-.34-.75-.75v-9.04l4.08 1.79h.84z" fill="#cdd0d2"/><path d="m19.5 19c-1.38 0-2.5 1.12-2.5 2.5 0 .17.02.34.05.5.03.17.08.32.15.48.04.1.09.2.15.29.07.13.16.25.26.36.09.11.19.21.3.3.12.1.25.19.4.27.12.06.24.11.37.16.1.04.21.07.32.09.16.03.33.05.5.05 1.21 0 2.22-.86 2.45-2 .03-.16.05-.33.05-.5 0-1.38-1.12-2.5-2.5-2.5z" fill="#607d8b"/><path d="m7.5 24c-1.378 0-2.5-1.122-2.5-2.5s1.122-2.5 2.5-2.5 2.5 1.122 2.5 2.5-1.122 2.5-2.5 2.5z" fill="#607d8b"/><path d="m7.5 19c-1.378 0-2.5 1.122-2.5 2.5s1.122 2.5 2.5 2.5z" fill="#546d79"/><path d="m19.5 19c-1.378 0-2.5 1.122-2.5 2.5s1.122 2.5 2.5 2.5z" fill="#546d79"/><path d="m12 9.367-5.996 2.633v-6.449l5.996-2.918z" fill="#ffa726"/><path d="m12 2.628-2.011.983-1.715.835-2.274 1.108-6-2.926 2.217-.971 1.92-.845 1.863-.812z" fill="#ffcc80"/><path d="m9.989 3.611v2.572l-1.703.834-.012-2.571-6.057-2.789 1.92-.845z" fill="#795548"/><path d="m2.217 1.657-2.217.971 5.996 2.924v-2.155zm3.779-1.655-1.858.81 1.858.889z" fill="#deb26f"/><path d="m4.137.812-1.92.845 3.779 1.74v-1.696z" fill="#694a3f"/><path d="m5.996 12-5.996-2.633v-6.734l5.996 2.918z" fill="#ffb74d"/><path d="m0 2.633v6.734l3 1.318v-6.592z" fill="#de9f43"/><path d="m8.274 4.446-2.27 1.105v6.449l3.141-1.379v-4.025l-.859.421z" fill="#de9121"/><path d="m8.274 4.446.012 2.571.859-.421v-2.682z" fill="#694a3f"/></svg>