<svg id="Capa_1" enable-background="new 0 0 512 512" height="512" viewBox="0 0 512 512" width="512" xmlns="http://www.w3.org/2000/svg"><g><g><path d="m512 65.129v386.525c0 8.249-6.688 14.937-14.951 14.937h-482.098c-8.263 0-14.951-6.688-14.951-14.937v-386.525c0-8.249 6.688-14.937 14.951-14.937h482.098c8.263 0 14.951 6.688 14.951 14.937z" fill="#e09977"/><path d="m303.654 220.912h-95.306c-5.69 0-10.302-4.612-10.302-10.302v-160.424h115.909v160.424c.001 5.689-4.612 10.302-10.301 10.302z" fill="#da875d"/><path d="m511.995 65.131v386.524c0 8.25-6.68 14.945-14.945 14.945h-46.126c8.265 0 14.945-6.695 14.945-14.945v-386.524c0-8.25-6.68-14.945-14.945-14.945h46.126c8.264 0 14.945 6.695 14.945 14.945z" fill="#da875d"/><path d="m303.654 191.96h-95.306c-5.69 0-10.302-4.612-10.302-10.302v-130.076c0-3.414 2.767-6.181 6.181-6.181h103.547c3.414 0 6.181 2.767 6.181 6.181v130.076c.001 5.69-4.612 10.302-10.301 10.302z" fill="#fddbbf"/><path d="m313.958 51.581v130.081c0 5.687-4.615 10.302-10.302 10.302h-31.369c5.697 0 10.302-4.615 10.302-10.302v-130.081c0-3.41-2.761-6.181-6.181-6.181h31.369c3.41 0 6.181 2.772 6.181 6.181z" fill="#fcca9f"/></g><g><g><path d="m434.864 427.8h-357.728c-5.69 0-10.302-4.612-10.302-10.302v-175.267c0-5.69 4.612-10.302 10.302-10.302h357.728c5.69 0 10.302 4.612 10.302 10.302v175.267c0 5.69-4.613 10.302-10.302 10.302z" fill="#f2eff2"/></g><path d="m445.162 242.227v175.275c0 5.687-4.605 10.302-10.302 10.302h-32.1c5.687 0 10.302-4.615 10.302-10.302v-175.275c0-5.687-4.615-10.302-10.302-10.302h32.1c5.697 0 10.302 4.615 10.302 10.302z" fill="#e1dde1"/><g><g><g><g><path d="m116.07 402.869c-4.267 0-7.726-3.459-7.726-7.726v-131.6c0-4.267 3.459-7.726 7.726-7.726s7.726 3.459 7.726 7.726v131.6c.001 4.267-3.458 7.726-7.726 7.726z" fill="#918291"/></g><g><g><path d="m158.474 377.481c-4.267 0-7.726-3.459-7.726-7.726v-106.212c0-4.267 3.459-7.726 7.726-7.726s7.726 3.459 7.726 7.726v106.212c.001 4.267-3.459 7.726-7.726 7.726z" fill="#918291"/></g><g><path d="m187.281 377.481c-4.267 0-7.726-3.459-7.726-7.726v-106.212c0-4.267 3.459-7.726 7.726-7.726s7.726 3.459 7.726 7.726v106.212c0 4.267-3.459 7.726-7.726 7.726z" fill="#918291"/></g></g><g><g><path d="m367.123 377.481c-4.267 0-7.726-3.459-7.726-7.726v-106.212c0-4.267 3.459-7.726 7.726-7.726s7.726 3.459 7.726 7.726v106.212c.001 4.267-3.459 7.726-7.726 7.726z" fill="#918291"/></g><g><path d="m395.93 402.869c-4.267 0-7.726-3.459-7.726-7.726v-131.6c0-4.267 3.459-7.726 7.726-7.726s7.726 3.459 7.726 7.726v131.6c0 4.267-3.459 7.726-7.726 7.726z" fill="#918291"/></g></g><g><g><path d="m229.397 377.481c-4.267 0-7.726-3.459-7.726-7.726v-106.212c0-4.267 3.459-7.726 7.726-7.726s7.726 3.459 7.726 7.726v106.212c0 4.267-3.459 7.726-7.726 7.726z" fill="#918291"/></g><g><path d="m258.203 377.481c-4.267 0-7.726-3.459-7.726-7.726v-106.212c0-4.267 3.459-7.726 7.726-7.726s7.726 3.459 7.726 7.726v106.212c0 4.267-3.459 7.726-7.726 7.726z" fill="#918291"/></g></g><g><g><path d="m287.009 377.481c-4.267 0-7.726-3.459-7.726-7.726v-106.212c0-4.267 3.459-7.726 7.726-7.726s7.726 3.459 7.726 7.726v106.212c0 4.267-3.459 7.726-7.726 7.726z" fill="#918291"/></g><g><path d="m315.815 377.481c-4.267 0-7.726-3.459-7.726-7.726v-106.212c0-4.267 3.459-7.726 7.726-7.726s7.726 3.459 7.726 7.726v106.212c.001 4.267-3.459 7.726-7.726 7.726z" fill="#918291"/></g></g></g><g id="XMLID_106_"><path d="m158.532 402.87c-.012 0-.023 0-.035 0l-.114-.001c-4.267-.019-7.711-3.493-7.692-7.761.019-4.256 3.474-7.692 7.725-7.692h.035.114c4.267.019 7.711 3.493 7.692 7.761-.019 4.256-3.474 7.693-7.725 7.693z" fill="#918291"/></g><g id="XMLID_105_"><path d="m187.338 402.87c-.012 0-.023 0-.035 0l-.114-.001c-4.267-.019-7.711-3.493-7.692-7.761.019-4.256 3.474-7.692 7.725-7.692h.035.114c4.267.019 7.711 3.493 7.692 7.761-.018 4.256-3.474 7.693-7.725 7.693z" fill="#918291"/></g><g id="XMLID_104_"><path d="m229.511 402.87c-.012 0-.023 0-.035 0l-.114-.001c-4.267-.019-7.711-3.493-7.692-7.761.019-4.256 3.474-7.692 7.725-7.692h.035.114c4.267.019 7.711 3.493 7.692 7.761-.018 4.256-3.474 7.693-7.725 7.693z" fill="#918291"/></g><g id="XMLID_103_"><path d="m258.26 402.87c-.012 0-.023 0-.035 0l-.114-.001c-4.267-.019-7.711-3.493-7.692-7.761.019-4.256 3.474-7.692 7.725-7.692h.035.114c4.267.019 7.711 3.493 7.692 7.761-.018 4.256-3.474 7.693-7.725 7.693z" fill="#918291"/></g><g id="XMLID_102_"><path d="m287.01 402.87c-.012 0-.023 0-.035 0l-.114-.001c-4.267-.019-7.711-3.493-7.692-7.761.019-4.256 3.474-7.692 7.725-7.692h.035.114c4.267.019 7.711 3.493 7.692 7.761-.019 4.256-3.474 7.693-7.725 7.693z" fill="#918291"/></g><g id="XMLID_101_"><path d="m315.759 402.87c-.012 0-.023 0-.035 0l-.114-.001c-4.267-.019-7.711-3.493-7.692-7.761.019-4.256 3.474-7.692 7.725-7.692h.035.114c4.267.019 7.711 3.493 7.692 7.761-.019 4.256-3.474 7.693-7.725 7.693z" fill="#918291"/></g><g id="XMLID_100_"><path d="m367.181 402.87c-.012 0-.023 0-.035 0l-.114-.001c-4.267-.019-7.711-3.493-7.692-7.761.019-4.256 3.474-7.692 7.725-7.692h.035.114c4.267.019 7.711 3.493 7.692 7.761-.019 4.256-3.474 7.693-7.725 7.693z" fill="#918291"/></g></g></g></g><g><g><path d="m50.779 124.634h-4.168c-4.267 0-7.726-3.459-7.726-7.726s3.459-7.726 7.726-7.726h4.168c4.267 0 7.726 3.459 7.726 7.726.001 4.267-3.459 7.726-7.726 7.726z" fill="#da875d"/></g><g><path d="m111.996 97.278h-65.384c-4.267 0-7.726-3.459-7.726-7.726s3.459-7.726 7.726-7.726h65.384c4.267 0 7.726 3.459 7.726 7.726s-3.459 7.726-7.726 7.726z" fill="#da875d"/></g><g><path d="m111.996 124.634h-29.796c-4.267 0-7.726-3.459-7.726-7.726s3.459-7.726 7.726-7.726h29.796c4.267 0 7.726 3.459 7.726 7.726s-3.459 7.726-7.726 7.726z" fill="#da875d"/></g></g><g><g><path d="m111.996 168.465h-65.384c-4.267 0-7.726-3.459-7.726-7.726s3.459-7.726 7.726-7.726h65.384c4.267 0 7.726 3.459 7.726 7.726s-3.459 7.726-7.726 7.726z" fill="#da875d"/></g></g></g></svg>